<?xml version="1.0" encoding="utf-8"?>
<!-- Generator: Adobe Illustrator 23.0.3, SVG Export Plug-In . SVG Version: 6.00 Build 0)  -->
<svg version="1.1" id="Layer_1" xmlns="http://www.w3.org/2000/svg" xmlns:xlink="http://www.w3.org/1999/xlink" x="0px" y="0px"
	 viewBox="0 0 894.39 532.37" style="enable-background:new 0 0 894.39 532.37;" xml:space="preserve">
<style type="text/css">
	.st0{fill:#FFFFFF;}
</style>
<path class="st0" d="M475.99,100.42c2.64-0.68,5.43-1.03,7.89-2.11c3.21-1.41,7.14-2.7,9-5.3c2.93-4.09,6.71-5.67,11.07-6.82
	c16.53-4.38,33.07-8.72,49.58-13.15c6.84-1.83,7.42-3.35,3.34-9c-2.15-2.99-1.63-5.23,1.21-7.16c1.65-1.12,3.37-2.13,5.09-3.12
	c3.99-2.3,5.72-5.91,5.93-10.32c0.39-8.16,0.92-16.32,0.86-24.47c-0.03-3.34-1.06-6.83-2.34-9.96c-1.36-3.33-1.09-6.37,1.82-7.85
	c2.29-1.16,6.04-1.65,8.05-0.51c1.69,0.96,3.18,5.23,2.43,7.1c-5.39,13.36-0.87,26.65-0.31,39.92c0.18,4.37,4.5,5.36,7.78,6.8
	c7.64,3.37,8.03,4.64,3,10.89c-3.28,4.08-2.74,5.96,2.37,7.18c12.55,3.01,25.21,5.56,37.67,8.91c8.13,2.19,16.7,4.29,23.73,8.6
	c6.02,3.69,10.62,9.74,18.81,10.24c-0.14,0.74-0.29,1.47-0.43,2.21c-3.52,0.89-7.01,1.9-10.56,2.63c-4.56,0.94-9.26,1.34-13.71,2.62
	c-1.84,0.53-4.12,2.52-4.61,4.28c-1.9,6.89-4.22,9.19-11.47,9.68c-4.82,0.33-9.65,0.57-14.47,0.86c-6.05,0.37-10.64,3.13-12.64,8.93
	c-2.6,7.53-5.49,15.08-6.94,22.86c-6.87,36.9-6.35,74.04-0.63,110.93c2.6,16.75,0.23,13.8,16.16,13.94c6.5,0.06,13-0.11,19.5,0.12
	c5.76,0.2,7.65,2.22,7.93,8.06c0.21,4.33,0.39,8.67,0.21,12.99c-0.19,4.52,1.53,6.13,6.14,6.09c31-0.29,62-0.36,93-0.49
	c3-0.01,6-0.06,9,0.02c7.54,0.2,9.11,1.76,9.07,9.25c-0.2,34.33-0.43,68.66-0.67,102.99c-0.05,7.83-0.18,15.66-0.26,23.5
	c-0.06,5.62,1.83,8.65,5.33,8.62c3.65-0.03,6.39-3.58,6.39-8.66c0.04-32.67,0.04-65.33,0.05-98c0-32.83-0.07-65.66,0.11-98.49
	c0.01-2.55,1.57-5.17,2.7-7.62c2.97-6.44,6.04-12.84,9.2-19.2c1.66-3.35,3.58-6.57,5.36-9.86c0.7-1.29,1.54-2.53,2.01-3.9
	c3.55-10.31,4.83-21.29,11.15-30.82c2.36-3.56,1.71-9.36,1.8-14.14c0.08-4.89,1.59-8.44,5.64-11.48c7.2-5.42,9.73-16,6.19-24.81
	c-1.88-4.68,1.3-6.72,3.96-9.15c3.65-3.33,5.98,0.04,8.64,1.78c3.07,2.02,3.12,4.27,1.76,7.67c-3.46,8.65,0.01,16.54,4.98,23.21
	c3.11,4.18,4.8,8.07,4.86,13.09c0.09,7.46,0.75,14.38,5.38,21.23c3.52,5.19,3.47,12.71,5.47,19.05c0.84,2.66,2.89,4.94,4.37,7.4
	c1.26,2.1,2.7,4.13,3.69,6.35c3.66,8.16,7.21,16.37,10.68,24.62c0.62,1.48,0.93,3.2,0.93,4.81c0.1,90.33,0.16,180.66,0.22,270.99
	c0,1.83-0.43,3.87,0.23,5.44c0.78,1.85,2.54,3.3,3.87,4.92c1.34-1.58,3.26-2.96,3.88-4.78c0.72-2.11,0.34-4.61,0.35-6.94
	c0.13-47.33,0.25-94.66,0.38-141.99c0.02-6.87,1-7.89,7.7-8.01c1.83-0.03,3.77-0.34,5.47,0.14c1.49,0.43,2.71,1.79,4.05,2.75
	c-1.25,1.02-2.49,2.05-3.78,3.03c-0.22,0.17-0.65,0.04-0.98,0.07c-6.21,0.55-7.17,1.47-7.21,7.65c-0.12,17-0.15,34-0.22,51
	c-0.14,31.66-0.3,63.33-0.43,94.99c-0.03,7.14-0.96,8.14-7.98,8.29c-1.33,0.03-2.67-0.08-4-0.02c-4.66,0.2-6.42-1.9-6.41-6.64
	c0.09-27.33-0.05-54.66-0.1-82c-0.12-65.33-0.21-130.66-0.43-195.99c-0.01-1.92-1.34-3.85-2.16-5.73c-0.72-1.64-1.8-3.14-2.38-4.82
	c-2.16-6.3-4.16-12.65-6.28-18.97c-0.31-0.93-0.69-2.07-1.41-2.61c-6.42-4.78-6.42-12.44-8.82-19.06
	c-1.95-5.38-4.43-10.57-6.56-15.89c-0.61-1.51-1.01-3.16-1.2-4.78c-0.61-5.13-0.89-10.3-1.69-15.39c-0.34-2.19-1.37-4.4-2.58-6.29
	c-1.67-2.61-3.9-4.85-5.73-7.36c-2.18-3-4.47-2.91-6.71,0.05c-2.06,2.73-4.64,5.07-6.74,7.78c-1.26,1.63-2.58,3.53-2.93,5.48
	c-0.72,3.91-0.39,8.04-1.26,11.9c-0.81,3.57-2.58,6.92-4.03,10.33c-1.16,2.72-2.76,5.29-3.65,8.09c-1.96,6.19-3.17,12.65-5.47,18.7
	c-2.04,5.34-5.33,10.19-7.71,15.42c-1.72,3.78-2.81,7.83-4.24,11.74c-0.57,1.56-0.85,3.69-2,4.49c-6.05,4.23-4.85,10.4-4.86,16.29
	c-0.03,63.33-0.06,126.66-0.07,189.99c0,3.7,0.48,8.4-3.8,9.34c-4.82,1.06-10.25,0.99-15.02-0.19c-1.61-0.4-2.82-5.66-2.85-8.71
	c-0.18-22-0.04-44,0.05-66c0.08-19.5,0.26-39,0.32-58.49c0.03-7.7-1.84-9.55-9.38-9.52c-32.67,0.12-65.33,0.26-97.99,0.42
	c-8.76,0.04-9.52-0.64-9.59-9.18c-0.03-3.67,0.04-7.34-0.19-11c-0.34-5.44-2.04-7.01-7.56-7.03c-8.83-0.03-17.67-0.02-26.5,0.15
	c-4.77,0.09-7.31-1.7-8.08-6.69c-6.41-41.59-7.94-83.26-1.09-124.9c1.49-9.09,5.19-17.87,8.45-26.59
	c2.64-7.07,8.49-10.32,15.92-10.91c4.48-0.35,8.95-0.91,13.43-1.32c4.76-0.43,7.16-3.27,7.67-7.75c0.32-2.8,0.39-5.67,0.17-8.48
	c-0.39-4.94-4.23-9.53-8.87-10.76c-11.66-3.07-23.32-6.15-35.03-9.03c-6.63-1.64-12.11-4.13-13.62-11.81
	c-0.39-1.97-2.25-4.21-4.05-5.23c-4.07-2.31-9.01-0.09-9.88,4.63c-1.38,7.48-6.02,10.74-12.95,12.41
	c-12.28,2.95-24.43,6.43-36.7,9.45c-5.12,1.26-7.73,4.19-8.02,9.36c-0.11,2-0.42,3.99-0.42,5.98c0,6.85,1.53,9.27,8.08,11.47
	c4.56,1.53,9.27,2.84,14.01,3.55c11.35,1.71,16.53,9.03,19.59,19.3c7.72,25.93,7.72,52.42,7.82,79.17
	c0.12,30.98-6.17,60.88-11.41,91.05c-2.39,13.76-3.68,27.72-5.31,41.61c-0.79,6.69-3.05,9.19-9.83,9.41
	c-6.99,0.23-14,0.36-20.98,0.16c-6.67-0.19-9.21-3-9.22-9.73c-0.03-21.5-0.04-43,0.11-64.5c0.03-3.96-1.15-6.84-4.11-9.61
	c-9.73-9.11-19.15-18.53-28.71-27.82c-4.76-4.63-5.94-4.71-10.8-0.34c-9.9,8.91-19.87,17.76-29.48,26.98
	c-1.89,1.81-3.28,5.15-3.29,7.79c-0.42,64.33-0.62,128.66-0.85,192.99c-0.02,4.67,0.02,9.33-0.05,14c-0.08,5.38-2,7.21-7.71,7.51
	c-7.16,0.38-10.36-1.43-10.8-6.65c-0.35-4.14-0.11-8.32-0.11-12.49c0.05-83,0.11-165.99,0.16-248.99
	c0.01-15.07-0.66-15.72-15.77-15.63c-17.17,0.1-34.33,0.19-51.5,0.26c-7.3,0.03-9.09,1.74-9.11,9.2
	c-0.14,58.83-0.24,117.66-0.36,176.49c-0.01,5.33-0.02,10.67-0.23,15.99c-0.06,1.61-0.26,3.7-1.27,4.69
	c-4.66,4.61-10.61,2.9-16.11,2.47c-4.25-0.33-5.57-4.03-5.95-7.6c-0.43-4.13-0.32-8.32-0.32-12.48c0.02-24.5,0.1-49,0.12-73.5
	c0-8.24-1.36-9.66-9.55-9.71c-18-0.12-36-0.15-54-0.17c-8.01-0.01-11.1,3.17-11.02,11.28c0.28,30.16,0.6,60.32,0.87,90.48
	c0.2,22.33,0.36,44.66,0.5,66.99c0.05,7.29-1.09,8.51-8.22,8.81c-4.49,0.19-8.99,0.24-13.49,0.3c-6.6,0.1-8.65-1.83-8.69-8.62
	c-0.09-14.5-0.03-29-0.04-43.5c-0.03-65.33-0.06-130.66-0.09-195.99c0-0.67-0.13-1.37,0.03-1.99c2.85-11.22-3.67-18.15-11.35-24.39
	c-1.39-1.13-3.61-1.66-5.46-1.7c-6.83-0.15-13.67-0.2-20.49,0.18c-2.27,0.13-4.57,1.45-6.67,2.57c-1.43,0.77-2.5,2.17-3.77,3.25
	c-6.72,5.72-9.95,12.12-9.9,21.81c0.47,91.66,0.23,183.33,0.19,274.99c0,8.07-1.14,9.15-9.33,9.11
	c-12.81-0.06-12.78-0.06-12.75-12.72c0.05-19.17,0.08-38.33,0.09-57.5c0-6.5-0.6-7.05-7.18-7.07c-6-0.02-12,0.02-18-0.07
	c-7.89-0.12-7.94-0.1-7.95,8.05c-0.02,19.33,0.06,38.67-0.18,58c-0.03,2.66-1.14,7.13-2.7,7.59c-3.58,1.07-7.85,0.65-11.61-0.19
	c-1.13-0.25-2.14-3.88-2.15-5.96c-0.07-28.83,0.03-57.66,0.13-86.49c0.13-35.33,0.31-70.66,0.44-105.99
	c0.04-9.61-1.33-10.99-10.97-11.02c-11.83-0.04-23.66-0.12-35.49,0.04c-7.2,0.1-9.43,2.53-9.51,9.82
	c-0.63,61.16-1.23,122.32-1.88,183.47c-0.04,3.32-0.02,6.72-0.73,9.93c-1.34,5.95-5.87,9.19-11.18,8.28
	c-1.2-0.21-2.22-1.49-3.32-2.27c0.9-1.03,1.71-2.82,2.72-2.95c6.66-0.83,7.05-5.52,7.1-10.64c0.62-62.49,1.29-124.99,1.88-187.48
	c0.14-14.48,0.02-14.54,14.35-14.54c13.83,0,27.67,0,41.5,0.24c9.3,0.16,10.36,1.41,10.33,10.55c-0.16,64.5-0.33,128.99-0.5,193.49
	c0,0.5-0.2,1.1,0.01,1.48c0.98,1.79,2.07,3.51,3.11,5.26c1.04-1.77,2.97-3.53,2.99-5.32c0.24-20.66,0.18-41.33,0.22-62
	c0.01-7.18,0.48-7.53,7.68-7.45c9.5,0.11,19,0.06,28.5,0.13c7.39,0.05,7.68,0.39,7.67,7.57c-0.04,20.83,0,41.67-0.15,62.5
	c-0.03,4.34,1.15,6.39,5.96,6.25c4.54-0.13,5.1-2.47,5.09-6.1c-0.05-16,0.01-32,0.05-48c0.2-77.5,0.38-154.99,0.75-232.49
	c0.01-2.69,1.35-5.88,3.1-7.96c3.51-4.18,7.81-7.69,11.64-11.62c2.99-3.07,6.4-4.33,10.74-4.15c7.15,0.3,14.33,0.12,21.5,0.14
	c0.67,0,1.34-0.04,2,0.03c5.32,0.51,18.24,14.61,18.25,19.96c0.09,82.66,0.18,165.33,0.25,247.99c0.01,6.58,0.53,7.16,7.06,7.09
	c12.74-0.13,11.94,1.37,11.96-12.3c0.05-51.66,0.18-103.32,0.33-154.99c0.02-8.41,1.77-10.17,10.41-10.22
	c21.66-0.11,43.33-0.11,65-0.05c7.36,0.02,9.05,1.88,9.05,9.3c0,27-0.01,54,0,81c0,2.33-0.01,4.67,0.14,7
	c0.26,4.2,2.93,6.58,6.77,6.63c4.02,0.05,6.3-2.58,6.35-6.81c0.06-5,0.23-10,0.25-14.99c0.16-59.66,0.29-119.33,0.46-178.99
	c0.02-7.77,0.46-8.27,8.21-8.35c23.33-0.22,46.66-0.34,70-0.45c7.09-0.03,8.08,0.99,8.09,8.09c0.02,50,0.03,100,0.03,149.99
	c0,39.33-0.02,78.66-0.05,117.99c0,3.17-0.77,6.74,4.11,6.88c4.99,0.14,4.36-3.63,4.37-6.7c0.1-30.16,0.15-60.33,0.21-90.49
	c0.07-37,0.2-74,0.13-111c-0.01-5.09,1.62-8.71,5.5-12.1c10.03-8.76,19.7-17.95,29.47-27c6.7-6.21,10.51-6.19,17.03,0.1
	c10.06,9.73,20.05,19.52,30.28,29.07c3.58,3.34,4.96,6.9,4.88,11.85c-0.34,20.16-0.27,40.33-0.3,60.5
	c-0.01,7.58,1.84,9.35,9.48,9.32c4-0.02,8-0.05,12-0.09c5.91-0.07,7.77-1.37,8.76-7.25c0.8-4.75,0.67-9.65,1.43-14.41
	c2.72-16.93,5.13-33.93,8.62-50.71c5.71-27.45,5.93-55.24,6.75-83.06c0.6-20.45-3.85-40-8.3-59.66c-2.08-9.18-8.77-12.14-16.88-13.9
	c-6.16-1.34-12.21-3.21-18.3-4.88c-3.47-0.95-5.84-2.87-6.52-6.7c-0.65-3.69-3.07-5.67-6.83-6.26c-5.42-0.85-10.82-1.88-16.21-2.92
	c-1.53-0.3-2.99-0.93-4.48-1.41C475.99,101.66,475.99,101.04,475.99,100.42z"/>
</svg>
